<?xml version="1.0" standalone="no"?><!DOCTYPE svg PUBLIC "-//W3C//DTD SVG 1.1//EN" "http://www.w3.org/Graphics/SVG/1.1/DTD/svg11.dtd"><svg width="200" height="200" viewBox="0 0 200 200" version="1.1" xmlns="http://www.w3.org/2000/svg" xmlns:xlink="http://www.w3.org/1999/xlink"><defs><style type="text/css"><![CDATA[
@font-face { font-family: ifont; src: url(http://at.alicdn.com/t/font_1442373896_4754455.eot?#iefix) format(embedded-opentype), url(http://at.alicdn.com/t/font_1442373896_4754455.woff) format(woff), url(http://at.alicdn.com/t/font_1442373896_4754455.ttf) format(truetype), url(http://at.alicdn.com/t/font_1442373896_4754455.svg#ifont) format(svg); }

]]></style></defs><g class="transform-group"><g transform="scale(0.1953125, 0.1953125)"><path d="M588 348l24 0 0 320-24 0L588 348zM420 348l24 0 0 320-24 0L420 348zM516 124c211.744 0 384 172.264 384 384 0 211.744-172.256 384-384 384-211.736 0-384-172.256-384-384C132 296.264 304.264 124 516 124M516 108c-220.912 0-400 179.088-400 400s179.088 400 400 400 400-179.088 400-400S736.912 108 516 108L516 108z" fill="#ffffff"></path></g></g></svg>