<?xml version="1.0" encoding="utf-8"?>
<!-- Generator: Adobe Illustrator 18.0.0, SVG Export Plug-In . SVG Version: 6.00 Build 0)  -->
<!DOCTYPE svg PUBLIC "-//W3C//DTD SVG 1.1//EN" "http://www.w3.org/Graphics/SVG/1.1/DTD/svg11.dtd">
<svg version="1.1" id="Layer_1" xmlns="http://www.w3.org/2000/svg" xmlns:xlink="http://www.w3.org/1999/xlink" x="0px" y="0px"
	 viewBox="0 0 332 47" enable-background="new 0 0 332 47" xml:space="preserve">
<g>
	<g>
		<g>
			<polygon fill="#55AB40" points="28.3,28 26.8,25.5 27.8,25.5 26.5,23.2 27.4,23.2 24,17.5 20.5,23.2 21.5,23.2 20.1,25.5 
				21.2,25.5 19.6,28 22.8,28 22.8,31.8 25.2,31.8 25.2,28 			"/>
			<polygon fill="#55AB40" points="33.5,28 31.9,22.1 33,22.1 31.6,19.8 32.6,19.8 29.1,14.1 25.7,19.8 26.6,19.8 25.3,22.1 
				26.3,22.1 24.8,28 28,28 28,31.8 30.3,31.8 30.3,28 			"/>
			<polygon fill="#55AB40" points="38.6,28 37.1,25.5 38.1,25.5 36.8,23.2 37.7,23.2 34.3,17.5 30.8,23.2 31.8,23.2 30.4,25.5 
				31.5,25.5 29.9,28 33.1,28 33.1,31.8 35.5,31.8 35.5,28 			"/>
		</g>
		<g>
			<path fill="#55AB40" d="M29.1,40.2C20.2,40.2,13,32.9,13,24c0-8.9,7.3-16.2,16.2-16.2c8.9,0,16.2,7.3,16.2,16.2
				C45.3,32.9,38,40.2,29.1,40.2z M29.1,9.4c-8,0-14.6,6.5-14.6,14.6c0,8,6.5,14.6,14.6,14.6c8,0,14.6-6.5,14.6-14.6
				C43.7,16,37.2,9.4,29.1,9.4z"/>
		</g>
	</g>
	<g>
		<g>
			<path fill="#FFFFFF" d="M143.3,16.9h4.5v13.4h8.1v3.9h-12.6V16.9z"/>
			<path fill="#FFFFFF" d="M163.2,21.3c3.9,0,6.6,2.9,6.6,6.7c0,3.8-2.7,6.6-6.6,6.6c-3.9,0-6.6-2.9-6.6-6.6
				C156.6,24.1,159.3,21.3,163.2,21.3z M163.2,31.4c1.9,0,2.5-1.9,2.5-3.5c0-1.6-0.6-3.5-2.5-3.5c-1.9,0-2.5,1.9-2.5,3.5
				C160.7,29.5,161.3,31.4,163.2,31.4z"/>
			<path fill="#FFFFFF" d="M178.4,34.2h-4.7l-4.2-12.6h4.3l2.3,8.3h0l2.3-8.3h4.2L178.4,34.2z"/>
			<path fill="#FFFFFF" d="M186.7,28.9c0.1,1.7,1.1,2.9,2.8,2.9c1,0,2-0.5,2.3-1.4h3.8c-0.8,2.9-3.4,4.2-6.2,4.2
				c-4.1,0-6.9-2.5-6.9-6.7c0-3.9,3.1-6.6,6.8-6.6c4.5,0,6.8,3.4,6.6,7.7H186.7z M191.8,26.6c-0.1-1.4-1.1-2.6-2.4-2.6
				c-1.5,0-2.4,1-2.7,2.6H191.8z"/>
			<path fill="#FFFFFF" d="M200.5,30c0,0.6,0.3,1.1,0.7,1.4c0.4,0.3,0.9,0.4,1.5,0.4c0.8,0,1.9-0.3,1.9-1.3c0-1-1.3-1.2-2-1.3
				c-2.6-0.7-5.8-0.7-5.8-4.1c0-3,3.3-3.9,5.7-3.9c2.8,0,5.6,0.8,5.8,4.1h-3.8c0-0.5-0.2-0.9-0.5-1.1c-0.3-0.2-0.8-0.3-1.3-0.3
				c-0.7,0-1.8,0.1-1.8,0.9c0,1.2,2.8,1.4,4.6,1.8c2.5,0.5,3.2,2.3,3.2,3.4c0,3.4-3.2,4.5-6,4.5c-3,0-6-1-6.2-4.5H200.5z"/>
		</g>
		<g>
			<path fill="#FFFFFF" d="M223.5,24.3H221V30c0,1,0.6,1.2,1.5,1.2c0.3,0,0.7,0,1.1,0v3c-0.8,0-1.5,0.1-2.3,0.1
				c-3.5,0-4.4-1-4.4-4.4v-5.6h-2.1v-2.7h2.1v-3.8h4.1v3.8h2.5V24.3z"/>
			<path fill="#FFFFFF" d="M224.6,16.9h4.1v6.4h0c0.6-1.3,2.3-2.1,3.8-2.1c4.2,0,4.5,3.1,4.5,4.9v8.1H233v-6.1
				c0-1.7,0.2-3.5-2.1-3.5c-1.6,0-2.2,1.3-2.2,2.7v6.9h-4.1V16.9z"/>
			<path fill="#FFFFFF" d="M242.2,28.9c0.1,1.7,1.1,2.9,2.8,2.9c1,0,2-0.5,2.3-1.4h3.9c-0.8,2.9-3.4,4.2-6.2,4.2
				c-4.1,0-6.9-2.5-6.9-6.7c0-3.9,3.1-6.6,6.8-6.6c4.5,0,6.8,3.4,6.6,7.7H242.2z M247.3,26.6c-0.1-1.4-1.1-2.6-2.4-2.6
				c-1.5,0-2.4,1-2.7,2.6H247.3z"/>
			<path fill="#FFFFFF" d="M258.8,16.9h13.8v3.6h-9.3v3h8.5V27h-8.5v3.3h9.5v3.9h-14V16.9z"/>
			<path fill="#FFFFFF" d="M274.8,25.5c0.1-1.6,0.8-2.7,2-3.4c1.1-0.6,2.6-0.9,4-0.9c3,0,5.9,0.7,5.9,4.2V31c0,1.1,0,2.2,0.5,3.2
				H283c-0.1-0.4-0.2-0.8-0.2-1.2c-1.1,1.1-2.6,1.5-4.1,1.5c-2.4,0-4.3-1.2-4.3-3.8c0-4.1,4.5-3.8,7.3-4.4c0.7-0.1,1.1-0.4,1.1-1.2
				c0-0.9-1.1-1.3-2-1.3c-1.1,0-1.9,0.5-2.1,1.6H274.8z M280.2,32c2,0,2.6-1.1,2.5-3.7c-0.6,0.4-1.6,0.4-2.5,0.7
				c-0.9,0.2-1.7,0.6-1.7,1.6C278.5,31.6,279.3,32,280.2,32z"/>
			<path fill="#FFFFFF" d="M288.3,21.6h4v2.2h0c0.6-1.6,2-2.4,3.8-2.4c0.3,0,0.7,0,1,0.1v3.8c-0.5-0.1-1-0.2-1.6-0.2
				c-2,0-3.1,1.4-3.1,3v6.2h-4.1V21.6z"/>
			<path fill="#FFFFFF" d="M306.3,24.3h-2.5V30c0,1,0.6,1.2,1.5,1.2c0.3,0,0.7,0,1.1,0v3c-0.8,0-1.5,0.1-2.3,0.1
				c-3.5,0-4.4-1-4.4-4.4v-5.6h-2.1v-2.7h2.1v-3.8h4.1v3.8h2.5V24.3z"/>
			<path fill="#FFFFFF" d="M307.4,16.9h4.1v6.4h0c0.6-1.3,2.3-2.1,3.8-2.1c4.2,0,4.5,3.1,4.5,4.9v8.1h-4.1v-6.1
				c0-1.7,0.2-3.5-2.1-3.5c-1.6,0-2.2,1.3-2.2,2.7v6.9h-4.1V16.9z"/>
		</g>
	</g>
	<g>
		<path fill="#FFFFFF" d="M58,28.3c0.1,2,1.4,2.7,3.3,2.7c1.4,0,2.8-0.5,2.8-1.8c0-1.5-2.5-1.8-5-2.5c-2.5-0.7-5.1-1.8-5.1-5
			c0-3.8,3.8-5.3,7-5.3c3.4,0,6.9,1.7,6.9,5.6h-4.5c0.1-1.6-1.4-2.1-2.8-2.1c-1,0-2.2,0.3-2.2,1.5c0,1.3,2.5,1.6,5,2.3
			c2.5,0.7,5,1.9,5,5c0,4.4-3.7,5.8-7.5,5.8c-4,0-7.5-1.7-7.5-6.2H58z"/>
		<path fill="#FFFFFF" d="M82.5,34.1h-4v-1.7h0c-0.8,1.3-2.4,2.1-3.8,2.1c-3.6,0-4.6-2.1-4.6-5.4v-7.6h4.1v7.3c0,1.7,0.7,2.3,2,2.3
			c0.9,0,2.3-0.6,2.3-2.8v-6.7h4.1V34.1z"/>
		<path fill="#FFFFFF" d="M84.4,16.9h4.1V23h0c0.8-1.2,2-1.7,3.6-1.7c3.6,0,5.3,3.1,5.3,6.4c0,3.5-1.7,6.9-5.6,6.9
			c-1.5,0-2.7-0.6-3.5-1.8h0v1.5h-3.9V16.9z M88.4,27.7c0,2.2,0.6,3.6,2.5,3.6c1.8,0,2.5-1.9,2.5-3.6c0-1.6-0.6-3.4-2.4-3.4
			C89.8,24.4,88.4,25.1,88.4,27.7z"/>
		<path fill="#FFFFFF" d="M99,25.5c0.1-1.6,0.8-2.7,2-3.4c1.1-0.6,2.6-0.9,4-0.9c3,0,5.9,0.7,5.9,4.2v5.5c0,1.1,0,2.2,0.5,3.2h-4.1
			c-0.1-0.4-0.2-0.8-0.2-1.2c-1.1,1.1-2.6,1.5-4.1,1.5c-2.4,0-4.3-1.2-4.3-3.8c0-4.1,4.5-3.8,7.3-4.4c0.7-0.1,1.1-0.4,1.1-1.2
			c0-0.9-1.1-1.3-2-1.3c-1.1,0-1.9,0.5-2.1,1.6H99z M104.3,32c2,0,2.6-1.1,2.5-3.7c-0.6,0.4-1.6,0.4-2.5,0.7
			c-0.9,0.2-1.7,0.6-1.7,1.6C102.6,31.6,103.4,32,104.3,32z"/>
		<path fill="#FFFFFF" d="M112.8,21.6h4v2.2h0c0.6-1.6,2-2.4,3.8-2.4c0.3,0,0.7,0,1,0.1v3.8c-0.5-0.1-1-0.2-1.6-0.2
			c-2,0-3.1,1.4-3.1,3v6.2h-4.1V21.6z"/>
		<path fill="#FFFFFF" d="M135,34.1h-4v-1.7h0c-0.8,1.3-2.4,2.1-3.8,2.1c-3.6,0-4.6-2.1-4.6-5.4v-7.6h4.1v7.3c0,1.7,0.7,2.3,2,2.3
			c0.9,0,2.3-0.6,2.3-2.8v-6.7h4.1V34.1z"/>
	</g>
</g>
</svg>
